<svg xmlns="http://www.w3.org/2000/svg" id="Layer_3" data-name="Layer 3" viewBox="0 0 857.5 217.2">
    <defs>
        <style>.cls-2,.cls-3,.cls-4{stroke-width:0}.cls-2{fill:#72f5cf}.cls-3{fill:#141b1f}.cls-4{fill:#4ff8d2}</style>
    </defs>
    <path d="M118 87.2c.7 0 1.3 0 1.9.3.4.1.8.3 1.2.5l.6.3c.4.3.7.5 1.1.9l5.2 5.2c2.7 2.7 2.7 7 0 9.7l-95.1 95.1c-1.3 1.3-3.1 2-4.8 2s-3.5-.7-4.8-2l-5.2-5.2c-2.7-2.7-2.7-7 0-9.7l85.1-85.1 10-10c.3-.3.7-.6 1.1-.9l.6-.3c.4-.2.8-.4 1.2-.5.6-.2 1.3-.3 1.9-.3m0-16c-2.2 0-4.4.3-6.5.9-1.4.4-2.8 1-4.1 1.7-.7.4-1.3.7-2 1.2-1.3.8-2.5 1.8-3.6 2.9l-10 10L6.7 173c-8.9 8.9-8.9 23.4 0 32.3l5.2 5.2c4.3 4.3 10.1 6.7 16.2 6.7s11.8-2.4 16.2-6.7l95.1-95.1c4.3-4.3 6.7-10.1 6.7-16.2s-2.4-11.8-6.7-16.2l-5.2-5.2c-1.1-1.1-2.3-2.1-3.6-2.9-.6-.4-1.3-.8-1.9-1.2-1.3-.7-2.7-1.3-4.1-1.7-2.1-.6-4.3-.9-6.5-.9Z" class="cls-2"></path>
    <path d="M119.4 16h.9l66.5 3.8c5.8.3 10.3 4.9 10.7 10.7l3.8 66.5c.3 4.4-1.4 8.7-4.5 11.8l-79.7 79.7c-3 3-6.9 4.5-11 4.5s-3.3-.3-4.9-.8l-49.9-16.5c-4.7-1.5-8.3-5.2-9.8-9.8L25 116c-1.8-5.6-.4-11.7 3.8-15.8l79.6-79.7c2.9-2.9 6.9-4.5 11-4.5m0-16c-8.4 0-16.3 3.3-22.3 9.2L17.4 88.9C8.9 97.4 6 109.7 9.8 121l16.5 49.9c3.1 9.4 10.6 16.9 20 20l49.9 16.5c3.2 1.1 6.5 1.6 9.9 1.6 8.4 0 16.3-3.3 22.3-9.2l79.7-79.7c6.3-6.3 9.7-15.1 9.2-24.1l-3.8-66.5c-.8-13.9-11.9-24.9-25.7-25.7L121.2 0h-1.8Z" class="cls-2"></path>
    <path d="M24.9 116.1 41.4 166c1.5 4.7 5.2 8.3 9.8 9.8l49.9 16.5c5.6 1.8 11.7.4 15.8-3.8l79.7-79.7c3.1-3.1 4.8-7.4 4.5-11.8l-3.8-66.5c-.3-5.8-4.9-10.3-10.7-10.7L120.1 16c-4.4-.3-8.7 1.4-11.8 4.5l-79.6 79.8c-4.1 4.1-5.6 10.3-3.8 15.8Z" style="fill:#a8f7d9;stroke-width:0"></path>
    <path d="M119.4 16h.9l66.5 3.8c5.8.3 10.3 4.9 10.7 10.7l3.8 66.5c.3 4.4-1.4 8.7-4.5 11.8l-79.7 79.7c-3 3-6.9 4.5-11 4.5s-3.3-.3-4.9-.8l-49.9-16.5c-4.7-1.5-8.3-5.2-9.8-9.8L25 116c-1.8-5.6-.4-11.7 3.8-15.8l79.6-79.7c2.9-2.9 6.9-4.5 11-4.5m0-10c-6.8 0-13.2 2.7-18 7.5L21.6 93.2c-6.8 6.8-9.2 16.8-6.2 26l16.5 49.9c2.5 7.6 8.6 13.7 16.2 16.2L98 201.8c2.6.9 5.3 1.3 8 1.3 6.8 0 13.2-2.7 18-7.5l79.7-79.7c5.1-5.1 7.8-12.2 7.4-19.5l-3.8-66.5c-.6-10.8-9.3-19.5-20.1-20.1L120.7 6h-1.5Z" class="cls-3"></path>
    <path d="m136.7 173.7 6.9-6.9-.6-.3-27.6-9.1-6.9 6.9 28.3 9.3ZM166.5 143.9l6.9-6.9-.6-.3-27.6-9.1-6.9 6.9 28.3 9.3ZM43.5 80.5l6.9-6.9.3.6 9.1 27.6-6.9 6.9-9.3-28.3ZM73.3 50.7l6.9-6.9.3.6L89.6 72l-6.9 6.9-9.3-28.3Z" class="cls-3"></path>
    <path d="m130.6 101.5-97.7 97.7c-2.7 2.7-7 2.7-9.7 0L18 194c-2.7-2.7-2.7-7 0-9.7l97.7-97.7c1.5-1.5 3.4-2.4 5.5-2.6l7.9-.8c2.8-.3 5.1 2.1 4.9 4.9l-.8 7.9c-.2 2.1-1.1 4-2.6 5.5Z" style="stroke-width:0;fill:#79ac91"></path>
    <path d="M129.5 83.3c2.6 0 4.7 2.2 4.4 4.9l-.8 7.9c-.2 2.1-1.1 4-2.6 5.5l-97.7 97.7c-1.3 1.3-3.1 2-4.8 2s-3.5-.7-4.8-2l-5.2-5.2c-2.7-2.7-2.7-7 0-9.7l97.7-97.7c1.5-1.5 3.4-2.4 5.5-2.6l7.9-.8h.4m0-10h-1.4l-7.9.8c-4.4.4-8.5 2.4-11.5 5.5l-97.8 97.7c-6.6 6.6-6.6 17.3 0 23.8l5.2 5.2c3.2 3.2 7.4 4.9 11.9 4.9s8.7-1.8 11.9-4.9l97.7-97.7c3.1-3.1 5-7.2 5.5-11.5l.8-7.9c.4-4-.9-8.1-3.7-11.1-2.7-3-6.6-4.7-10.7-4.7Z" class="cls-3"></path>
    <path d="M270.2 33.5h20.9v143.2h-20.9zM319.2 69.3h20.9v107.4h-20.9zM329.8 27.7c-3.6 0-6.7 1.2-9.3 3.7-2.6 2.4-3.9 5.4-3.9 8.8s1.3 6.3 3.9 8.8c2.6 2.4 5.7 3.7 9.3 3.7s6.7-1.2 9.3-3.7c2.6-2.4 3.9-5.4 3.9-8.8s-1.3-6.4-3.9-8.8c-2.6-2.4-5.7-3.7-9.3-3.7ZM446.1 74.4c-6.8-4.4-14.5-6.6-23.2-6.6s-12 1.1-16.1 3.3c-4.1 2.2-7.2 4.8-9.5 7.7-2.3 2.9-4 5.5-5.2 7.8h-1.3V33.4h-20.9v143.2h20.4v-16.7h1.7c1.3 2.3 3.1 4.9 5.4 7.8 2.3 2.9 5.6 5.5 9.7 7.7s9.4 3.3 16 3.3 16.4-2.2 23.1-6.7c6.8-4.4 12.1-10.8 15.9-19.1 3.9-8.3 5.8-18.2 5.8-29.8s-1.9-21.5-5.8-29.8c-3.9-8.2-9.2-14.6-16-18.9Zm-2.5 67.9c-2.2 5.7-5.3 10.3-9.5 13.6-4.2 3.3-9.4 5-15.7 5s-11.1-1.6-15.2-4.8c-4.1-3.2-7.3-7.6-9.5-13.3-2.2-5.7-3.3-12.3-3.3-19.9s1.1-14 3.2-19.6c2.1-5.6 5.3-10 9.5-13.1 4.2-3.1 9.3-4.7 15.3-4.7s11.5 1.6 15.8 4.9c4.2 3.3 7.4 7.7 9.5 13.4 2.1 5.6 3.2 12 3.2 19.1s-1.1 13.6-3.3 19.4ZM580.2 108.9c-4.1-3.1-8.6-5.6-13.4-7.5-4.8-1.9-9.5-3.4-14.1-4.5l-14-3.6c-2.8-.7-5.7-1.6-8.7-2.7-3-1.1-5.9-2.5-8.5-4.1-2.6-1.7-4.8-3.7-6.4-6.2-1.6-2.5-2.4-5.4-2.4-8.8s1.2-7.7 3.5-10.9c2.4-3.2 5.7-5.7 10-7.6 4.3-1.8 9.4-2.8 15.2-2.8s15 1.8 20.4 5.5c5.4 3.7 8.5 8.8 9.2 15.4h20.8c-.2-7.7-2.4-14.5-6.7-20.4-4.3-5.9-10.1-10.6-17.6-14-7.4-3.4-16-5.1-25.7-5.1s-18.2 1.7-25.9 5.1c-7.6 3.4-13.7 8.2-18.2 14.4-4.5 6.2-6.7 13.4-6.7 21.6s3.3 18 10 24c6.7 6.1 15.8 10.7 27.2 13.8l16.9 4.6c5.1 1.4 9.7 2.9 13.8 4.7 4.1 1.8 7.3 4 9.7 6.7 2.4 2.7 3.6 6.2 3.6 10.4s-1.4 8.7-4.1 12.2c-2.8 3.5-6.5 6.2-11.3 8.1-4.8 1.9-10.2 2.9-16.3 2.9s-10.6-.8-15.3-2.5c-4.6-1.7-8.4-4.2-11.4-7.6-3-3.4-4.6-7.7-5.1-12.9H487c.5 8.6 2.9 16.1 7.3 22.3 4.4 6.3 10.6 11.1 18.4 14.5 7.8 3.4 17.1 5.1 27.8 5.1s20.7-1.8 28.6-5.5c7.9-3.6 13.9-8.6 18.1-14.9 4.2-6.3 6.3-13.5 6.3-21.6s-1.3-12-3.8-16.6c-2.5-4.6-5.9-8.5-10-11.6ZM735.8 144.4c5.6-11 8.4-24.1 8.4-39.4s-2.8-28.4-8.4-39.4c-5.6-11-13.2-19.4-23-25.3-9.7-5.9-20.8-8.8-33.1-8.8s-23.5 2.9-33.2 8.8c-9.7 5.9-17.4 14.3-23 25.3-5.6 11-8.4 24.1-8.4 39.4s2.8 28.4 8.4 39.4c5.6 11 13.2 19.4 23 25.3 9.7 5.9 20.8 8.8 33.2 8.8s17.8-1.7 25.6-5l12.2 15.9h22.1l-19.3-25.1c6.3-5.3 11.4-11.9 15.5-19.9Zm-18.7-9.9c-2.6 5.5-5.8 10-9.7 13.7l-13.8-18h-21.3l20.3 26.7c-4.1 1.3-8.4 2-13.1 2-8.2 0-15.6-2.1-22.1-6.2-6.5-4.1-11.6-10.2-15.3-18.2-3.8-8-5.6-17.8-5.6-29.5s1.9-21.5 5.6-29.5c3.8-8 8.9-14.1 15.3-18.2 6.5-4.1 13.8-6.2 22.1-6.2s15.6 2.1 22.1 6.2c6.5 4.1 11.6 10.2 15.4 18.2 3.8 8 5.6 17.8 5.6 29.5s-1.9 21.5-5.6 29.5ZM792.7 158V33.5h-21.6v143.1h86.4V158h-64.8z" class="cls-4"></path>
</svg>